# xmcd
#
# Track frame offsets: 
#        150
#        19052
#        40546
#        63977
#        77624
#        108320
#        126947
#        144397
#        161880
#        179375
#        198768
#        217386
#        240558
#        254150
#        276329
#        307629
#
# Disc length: 4332 seconds
#
# Revision: 0
# Processed by: cddbd v1.5.2PL0 Copyright (c) Steve Scherf et al.
# Submitted via: ExactAudioCopyFreeDBPlugin 1.0
#
DISCID=e210ea10
DTITLE=Paul Carrack - 2000-2020 The Independent Years
DYEAR=2020
DGENRE=Soul
TTITLE0=Too Good To Be True (Symphony Hall, Birmingham, 2017)
TTITLE1=Happy To See You Again (Buxton Opera House, 2004)
TTITLE2=Nothing More Than A Memory (Buxton Opera House, 2004)
TTITLE3=When You Walk In The Room (Bonn, Germany, 2005)
TTITLE4=Make Your Mind Up (Cork Opera House, 2019)
TTITLE5=Groovin' (Cornbury Festival, 2019)
TTITLE6=Let Me Love Again (Preston Guild Hall, 2016)
TTITLE7=What's Going On (Holland, 2012)
TTITLE8=Dance To The Music (Buxton Opera House, 2004)
TTITLE9=From Now On (Holland, 2012
TTITLE10=Long Ago (Holland, 2012)
TTITLE11=Beggar On A Beach Of Gold (Liverpool Philharmonic Hall, 2004)
TTITLE12=I'm Losing You (London Palladium, 2014)
TTITLE13=Nothing Without You (Holland, 2012)
TTITLE14=Beautiful World (Holland, 2012)
TTITLE15=Dedicated (Royal Theatre Carré, Amsterdam, 2018)
EXTD=
EXTT0=
EXTT1=
EXTT2=
EXTT3=
EXTT4=
EXTT5=
EXTT6=
EXTT7=
EXTT8=
EXTT9=
EXTT10=
EXTT11=
EXTT12=
EXTT13=
EXTT14=
EXTT15=
PLAYORDER=
